# xmcd CD Database Entry
#
# Track frame offsets:
# 150
# 13757
# 35547
# 58665
# 91797
# 107495
# 132755
# 149977
# 174175
# 193070
# 211642
# 233845
# 244442
# 260267
# 278732
# 292075
#
# Disc length: 4270 seconds
#
# Revision: 1
# Processed by: cddbd v1.4PL0 Copyright (c) Steve Scherf et al.
# Submitted via: tcd 2.0b
#
DISCID=e910ac10
DTITLE=Howlin' Wolf - Killing Floor
DYEAR=1900
DGENRE=
TTITLE0=Highway 49
TTITLE1=Dust My Broom
TTITLE2=Rockin' The Blues
TTITLE3=Forty-Four
TTITLE4=Do The Do
TTITLE5=Little Red Rooster
TTITLE6=All My Life
TTITLE7=I Didn't Mean To Hurt Your Feelings
TTITLE8=Howlin' For My Darlin'
TTITLE9=Commit A Crime
TTITLE10=Wang Dang Doodle
TTITLE11=Built For Comfort
TTITLE12=Killing Floor
TTITLE13=Poor Boy
TTITLE14=Worried About You
TTITLE15=Going Down Slow
EXTD=
EXTT0=
EXTT1=
EXTT2=
EXTT3=
EXTT4=
EXTT5=
EXTT6=
EXTT7=
EXTT8=
EXTT9=
EXTT10=
EXTT11=
EXTT12=
EXTT13=
EXTT14=
EXTT15=
PLAYORDER=
